<svg width="68" height="64" viewBox="0 0 68 64" fill="none" xmlns="http://www.w3.org/2000/svg">
<path d="M18.4853 17.069L10.1718 27.9327L28.8669 62.8412H39.1331L57.8282 27.9327L49.5031 17.069H18.4853Z" fill="url(#paint0_linear_1447_1007)"/>
<path fill-rule="evenodd" clip-rule="evenodd" d="M14.5883 12.9138L18.8666 15.9102H49.1427L53.4129 12.9194L50.6598 0L67.5 12.3035L59.1994 27.8017L59.2143 27.8211L39.8357 64H28.1644L8.78865 27.8211L8.80178 27.8039L0.5 12.3035L17.3402 0L14.5883 12.9138ZM12.4235 23.0722L16.8271 17.319L14.0622 15.3825L12.4235 23.0722ZM12.5147 11.4615L8.98343 8.98829L13.7911 5.47674L12.5147 11.4615ZM7.00043 10.4367L11.9883 13.93L9.71902 24.5707L3.51459 12.9828L7.00043 10.4367ZM55.5776 23.0774L53.939 15.3882L51.1697 17.3277L55.5776 23.0774ZM56.0176 13.9324L58.2854 24.5693L64.4898 12.9814L61.0073 10.4378L56.0176 13.9324ZM59.0242 8.98942L54.2148 5.47674L55.4912 11.4638L59.0242 8.98942ZM25.8345 54.7085L22.5314 40.149L17.2365 38.6542L25.8345 54.7085ZM21.9473 37.5745L20.0228 29.0914H12.1151L15.7161 35.8153L21.9473 37.5745ZM21.8923 26.7738H30.3237L20.3003 19.7564L21.8923 26.7738ZM22.169 18.2278L34.0041 26.5137L45.8349 18.2278H22.169ZM22.4181 29.0914H45.5837L40.8247 50.1027L34.0051 52.0282L27.1849 50.1029L22.4181 29.0914ZM27.7691 52.6777L34.0051 54.4385L40.2416 52.6773L38.2019 61.6824H29.812L27.7691 52.6777ZM17.9028 19.7465L19.497 26.7738H12.5246L17.9028 19.7465ZM46.1086 26.7738H37.6837L47.6971 19.7608L46.1086 26.7738ZM47.9788 29.0914H55.8849L52.3012 35.783L46.0644 37.5438L47.9788 29.0914ZM45.4813 40.118L42.1847 54.6727L50.7808 38.6219L45.4813 40.118ZM48.5037 26.7738L50.0936 19.7546L55.4739 26.7738H48.5037Z" fill="black"/>
<defs>
<linearGradient id="paint0_linear_1447_1007" x1="33.999" y1="64" x2="33.999" y2="0" gradientUnits="userSpaceOnUse">
<stop stop-color="#FC3F63"/>
<stop offset="1" stop-color="#D4145A"/>
</linearGradient>
</defs>
</svg>
