<svg width="188" height="44" viewBox="0 0 188 44" fill="none" xmlns="http://www.w3.org/2000/svg">
<path d="M29.5446 9.10449L23.1641 12.6263L16.7443 9.10449L10.3019 13.8124L7.85938 22.5972L23.1641 38.1817L38.4295 22.5972L35.9869 13.8124L29.5446 9.10449Z" fill="#E73631"/>
<path d="M35.9883 13.8121L38.4309 22.597L45.9272 21.9997L41.5761 8.6416L35.9883 13.8121Z" fill="#D0332B"/>
<path d="M30.1877 0.386719L29.5469 9.10428L35.9892 13.8122L41.5771 8.64163L30.1877 0.386719Z" fill="#E73631"/>
<path d="M16.1484 0.386719L16.7471 9.10428L23.167 12.6261L29.5475 9.10428L30.1883 0.386719H16.1484Z" fill="#EF7C76"/>
<path d="M0.40625 22L7.86328 22.5972L14.0807 28.9258L4.75735 35.3581L0.40625 22Z" fill="#EF7C76"/>
<path d="M4.75391 8.64163L10.3024 13.8122L16.7447 9.10428L16.146 0.386719L4.75391 8.64163Z" fill="#E94845"/>
<path d="M0.40625 21.9997L7.86328 22.597L10.3059 13.8121L4.75735 8.6416L0.40625 21.9997Z" fill="#E73631"/>
<path d="M38.4333 22.5972L32.2383 28.923L41.5785 35.3581L45.9296 22L38.4333 22.5972Z" fill="#AC211D"/>
<path d="M41.5786 35.358L32.2384 28.9229L23.168 38.1816L30.2287 43.6129L41.5786 35.358Z" fill="#D0332B"/>
<path d="M16.1094 43.6129L23.1673 38.1816L30.228 43.6129H16.1094Z" fill="#AC211D"/>
<path d="M4.75391 35.3581L14.0773 28.9258L23.1646 38.1817L16.1067 43.613L4.75391 35.3581Z" fill="#E94845"/>
<path d="M41.9089 8.40352L30.3144 0H16.0215L4.42699 8.40352L0 22L4.42699 35.5965L15.7432 43.8262L16.0215 44H30.3537L41.9089 35.5965L46.3359 22L41.9089 8.40352ZM32.9565 28.8529L38.6455 23.0459L44.7703 22.558L40.9307 34.3459L32.9565 28.8529ZM5.40796 34.3459L1.56842 22.558L7.65378 23.0459L13.3625 28.8585L5.40796 34.3459ZM9.78155 13.9582L7.51886 22.1037L1.50939 21.6243L5.35174 9.83074L9.78436 13.961L9.78155 13.9582ZM7.86459 22.5972L23.1693 38.1817L14.0821 28.9286L7.86459 22.5972ZM29.651 1.31507L29.1001 8.82131L23.1665 12.0964L17.1964 8.82131L16.6792 1.31507H29.6538H29.651ZM22.7168 13.4395L23.1665 13.6862L23.6163 13.4395L29.4739 10.2065L35.177 14.3732L37.3891 22.3337L23.1637 36.8555L8.90177 22.3309L11.1139 14.3732L16.817 10.2065L22.7168 13.4423V13.4395ZM38.7777 22.1037L36.515 13.961L40.9841 9.82513L44.8265 21.6215L38.7777 22.1037ZM40.4979 9.00918L35.9556 13.2123L30.0305 8.883L30.5505 1.79735L40.4979 9.00637V9.00918ZM16.266 8.883L10.3409 13.2123L5.83239 9.01198L15.777 1.80296L16.2632 8.883H16.266ZM16.4122 42.6877L5.96731 35.0918L14.023 29.5343L22.4695 38.1341L16.5527 42.6877H16.4122ZM18.079 42.6877L23.1693 38.7706L28.2597 42.6877H18.079ZM23.8692 38.1341L32.2988 29.5287L40.3714 35.0918L29.9265 42.6877H29.7859L23.8692 38.1341Z" fill="#2B3038"/>
<path d="M17.6872 14.6535L21.7628 15.4302L17.4567 13.0664L13.1309 16.2265L11.4922 22.1204L17.4258 28.7182L21.7628 32.5793L17.7518 28.3341L13.5918 21.8513L14.7639 16.6639L17.6872 14.6535Z" fill="white"/>
<path d="M73.198 11.95C73.198 12.7713 73 13.5413 72.604 14.26C72.2227 14.9787 71.614 15.558 70.778 15.998C69.9567 16.438 68.9153 16.658 67.654 16.658H65.08V22.554H62V7.198H67.654C68.842 7.198 69.854 7.40333 70.69 7.814C71.526 8.22467 72.1493 8.78933 72.56 9.508C72.9853 10.2267 73.198 11.0407 73.198 11.95ZM67.522 14.172C68.3727 14.172 69.0033 13.9813 69.414 13.6C69.8247 13.204 70.03 12.654 70.03 11.95C70.03 10.454 69.194 9.706 67.522 9.706H65.08V14.172H67.522Z" fill="#2B3038"/>
<path d="M78.4648 20.112H83.5248V22.554H75.3848V7.198H78.4648V20.112Z" fill="#2B3038"/>
<path d="M93.4024 22.554L90.0144 16.57H88.5624V22.554H85.4824V7.198H91.2464C92.4344 7.198 93.4464 7.41067 94.2824 7.836C95.1184 8.24667 95.7418 8.81133 96.1524 9.53C96.5778 10.234 96.7904 11.026 96.7904 11.906C96.7904 12.918 96.4971 13.8347 95.9104 14.656C95.3238 15.4627 94.4511 16.02 93.2924 16.328L96.9664 22.554H93.4024ZM88.5624 14.26H91.1364C91.9724 14.26 92.5958 14.062 93.0064 13.666C93.4171 13.2553 93.6224 12.6907 93.6224 11.972C93.6224 11.268 93.4171 10.7253 93.0064 10.344C92.5958 9.948 91.9724 9.75 91.1364 9.75H88.5624V14.26Z" fill="#2B3038"/>
<path d="M102.612 7.198V16.702C102.612 17.7433 102.884 18.5427 103.426 19.1C103.969 19.6427 104.732 19.914 105.714 19.914C106.712 19.914 107.482 19.6427 108.024 19.1C108.567 18.5427 108.838 17.7433 108.838 16.702V7.198H111.94V16.68C111.94 17.9853 111.654 19.0927 111.082 20.002C110.525 20.8967 109.77 21.5713 108.816 22.026C107.878 22.4807 106.829 22.708 105.67 22.708C104.526 22.708 103.485 22.4807 102.546 22.026C101.622 21.5713 100.889 20.8967 100.346 20.002C99.8035 19.0927 99.5322 17.9853 99.5322 16.68V7.198H102.612Z" fill="#2B3038"/>
<path d="M125.608 11.818C125.256 11.1727 124.772 10.6813 124.156 10.344C123.54 10.0067 122.821 9.838 122 9.838C121.091 9.838 120.284 10.0433 119.58 10.454C118.876 10.8647 118.326 11.4513 117.93 12.214C117.534 12.9767 117.336 13.8567 117.336 14.854C117.336 15.8807 117.534 16.7753 117.93 17.538C118.341 18.3007 118.905 18.8873 119.624 19.298C120.343 19.7087 121.179 19.914 122.132 19.914C123.305 19.914 124.266 19.606 125.014 18.99C125.762 18.3593 126.253 17.4867 126.488 16.372H121.208V14.018H129.524V16.702C129.319 17.7727 128.879 18.7627 128.204 19.672C127.529 20.5813 126.657 21.3147 125.586 21.872C124.53 22.4147 123.342 22.686 122.022 22.686C120.541 22.686 119.199 22.356 117.996 21.696C116.808 21.0213 115.869 20.09 115.18 18.902C114.505 17.714 114.168 16.3647 114.168 14.854C114.168 13.3433 114.505 11.994 115.18 10.806C115.869 9.60333 116.808 8.672 117.996 8.012C119.199 7.33733 120.533 7 122 7C123.731 7 125.234 7.42533 126.51 8.276C127.786 9.112 128.666 10.2927 129.15 11.818H125.608Z" fill="#2B3038"/>
<path d="M67.599 33.698C67.599 34.1086 67.5 34.4936 67.302 34.853C67.1113 35.2123 66.807 35.502 66.389 35.722C65.9783 35.942 65.4577 36.052 64.827 36.052H63.54V39H62V31.322H64.827C65.421 31.322 65.927 31.4246 66.345 31.63C66.763 31.8353 67.0747 32.1176 67.28 32.477C67.4927 32.8363 67.599 33.2433 67.599 33.698ZM64.761 34.809C65.1863 34.809 65.5017 34.7136 65.707 34.523C65.9123 34.325 66.015 34.05 66.015 33.698C66.015 32.95 65.597 32.576 64.761 32.576H63.54V34.809H64.761Z" fill="#2B3038"/>
<path d="M71.2884 39.099C70.7017 39.099 70.1737 38.9706 69.7044 38.714C69.235 38.45 68.8647 38.0796 68.5934 37.603C68.3294 37.1263 68.1974 36.5763 68.1974 35.953C68.1974 35.3296 68.333 34.7796 68.6044 34.303C68.883 33.8263 69.2607 33.4596 69.7374 33.203C70.214 32.939 70.7457 32.807 71.3324 32.807C71.9191 32.807 72.4507 32.939 72.9274 33.203C73.404 33.4596 73.778 33.8263 74.0494 34.303C74.328 34.7796 74.4674 35.3296 74.4674 35.953C74.4674 36.5763 74.3244 37.1263 74.0384 37.603C73.7597 38.0796 73.3784 38.45 72.8944 38.714C72.4177 38.9706 71.8824 39.099 71.2884 39.099ZM71.2884 37.757C71.567 37.757 71.8274 37.691 72.0694 37.559C72.3187 37.4196 72.5167 37.2143 72.6634 36.943C72.8101 36.6716 72.8834 36.3416 72.8834 35.953C72.8834 35.3736 72.7294 34.93 72.4214 34.622C72.1207 34.3066 71.7504 34.149 71.3104 34.149C70.8704 34.149 70.5 34.3066 70.1994 34.622C69.906 34.93 69.7594 35.3736 69.7594 35.953C69.7594 36.5323 69.9024 36.9796 70.1884 37.295C70.4817 37.603 70.8484 37.757 71.2884 37.757Z" fill="#2B3038"/>
<path d="M77.027 30.86V39H75.487V30.86H77.027Z" fill="#2B3038"/>
<path d="M79.2196 32.18C78.9482 32.18 78.7209 32.0956 78.5376 31.927C78.3616 31.751 78.2736 31.5346 78.2736 31.278C78.2736 31.0213 78.3616 30.8086 78.5376 30.64C78.7209 30.464 78.9482 30.376 79.2196 30.376C79.4909 30.376 79.7146 30.464 79.8906 30.64C80.0739 30.8086 80.1656 31.0213 80.1656 31.278C80.1656 31.5346 80.0739 31.751 79.8906 31.927C79.7146 32.0956 79.4909 32.18 79.2196 32.18ZM79.9786 32.906V39H78.4386V32.906H79.9786Z" fill="#2B3038"/>
<path d="M83.7221 39.099C83.2234 39.099 82.7761 39.011 82.3801 38.835C81.9841 38.6516 81.6687 38.406 81.4341 38.098C81.2067 37.79 81.0821 37.449 81.0601 37.075H82.6111C82.6404 37.3096 82.7541 37.504 82.9521 37.658C83.1574 37.812 83.4104 37.889 83.7111 37.889C84.0044 37.889 84.2317 37.8303 84.3931 37.713C84.5617 37.5956 84.6461 37.4453 84.6461 37.262C84.6461 37.064 84.5434 36.9173 84.3381 36.822C84.1401 36.7193 83.8211 36.6093 83.3811 36.492C82.9264 36.382 82.5524 36.2683 82.2591 36.151C81.9731 36.0336 81.7237 35.854 81.5111 35.612C81.3057 35.37 81.2031 35.0436 81.2031 34.633C81.2031 34.2956 81.2984 33.9876 81.4891 33.709C81.6871 33.4303 81.9657 33.2103 82.3251 33.049C82.6917 32.8876 83.1207 32.807 83.6121 32.807C84.3381 32.807 84.9174 32.9903 85.3501 33.357C85.7827 33.7163 86.0211 34.204 86.0651 34.82H84.5911C84.5691 34.578 84.4664 34.3873 84.2831 34.248C84.1071 34.1013 83.8687 34.028 83.5681 34.028C83.2894 34.028 83.0731 34.0793 82.9191 34.182C82.7724 34.2846 82.6991 34.4276 82.6991 34.611C82.6991 34.8163 82.8017 34.974 83.0071 35.084C83.2124 35.1866 83.5314 35.293 83.9641 35.403C84.4041 35.513 84.7671 35.6266 85.0531 35.744C85.3391 35.8613 85.5847 36.0446 85.7901 36.294C86.0027 36.536 86.1127 36.8586 86.1201 37.262C86.1201 37.614 86.0211 37.9293 85.8231 38.208C85.6324 38.4866 85.3537 38.7066 84.9871 38.868C84.6277 39.022 84.2061 39.099 83.7221 39.099Z" fill="#2B3038"/>
<path d="M90.7062 32.818C91.1682 32.818 91.5789 32.9206 91.9382 33.126C92.2976 33.324 92.5762 33.621 92.7742 34.017C92.9796 34.4056 93.0822 34.875 93.0822 35.425V39H91.5422V35.634C91.5422 35.15 91.4212 34.7796 91.1792 34.523C90.9372 34.259 90.6072 34.127 90.1892 34.127C89.7639 34.127 89.4266 34.259 89.1772 34.523C88.9352 34.7796 88.8142 35.15 88.8142 35.634V39H87.2742V30.86H88.8142V33.665C89.0122 33.401 89.2762 33.1956 89.6062 33.049C89.9362 32.895 90.3029 32.818 90.7062 32.818Z" fill="#2B3038"/>
<path d="M100.908 39L99.2138 36.008H98.4878V39H96.9478V31.322H99.8298C100.424 31.322 100.93 31.4283 101.348 31.641C101.766 31.8463 102.077 32.1286 102.283 32.488C102.495 32.84 102.602 33.236 102.602 33.676C102.602 34.182 102.455 34.6403 102.162 35.051C101.868 35.4543 101.432 35.733 100.853 35.887L102.69 39H100.908ZM98.4878 34.853H99.7748C100.193 34.853 100.504 34.754 100.71 34.556C100.915 34.3506 101.018 34.0683 101.018 33.709C101.018 33.357 100.915 33.0856 100.71 32.895C100.504 32.697 100.193 32.598 99.7748 32.598H98.4878V34.853Z" fill="#2B3038"/>
<path d="M109.638 32.906V39H108.087V38.23C107.889 38.494 107.628 38.703 107.306 38.857C106.99 39.0036 106.646 39.077 106.272 39.077C105.795 39.077 105.373 38.978 105.007 38.78C104.64 38.5746 104.35 38.2776 104.138 37.889C103.932 37.493 103.83 37.0236 103.83 36.481V32.906H105.37V36.261C105.37 36.745 105.491 37.119 105.733 37.383C105.975 37.6396 106.305 37.768 106.723 37.768C107.148 37.768 107.482 37.6396 107.724 37.383C107.966 37.119 108.087 36.745 108.087 36.261V32.906H109.638Z" fill="#2B3038"/>
<path d="M112.587 33.797C112.785 33.5036 113.056 33.2653 113.401 33.082C113.753 32.8986 114.153 32.807 114.6 32.807C115.121 32.807 115.59 32.9353 116.008 33.192C116.433 33.4486 116.767 33.8153 117.009 34.292C117.258 34.7613 117.383 35.3076 117.383 35.931C117.383 36.5543 117.258 37.108 117.009 37.592C116.767 38.0686 116.433 38.439 116.008 38.703C115.59 38.967 115.121 39.099 114.6 39.099C114.145 39.099 113.746 39.011 113.401 38.835C113.064 38.6516 112.792 38.417 112.587 38.131V39H111.047V30.86H112.587V33.797ZM115.81 35.931C115.81 35.5643 115.733 35.249 115.579 34.985C115.432 34.7136 115.234 34.5083 114.985 34.369C114.743 34.2296 114.479 34.16 114.193 34.16C113.914 34.16 113.65 34.2333 113.401 34.38C113.159 34.5193 112.961 34.7246 112.807 34.996C112.66 35.2673 112.587 35.5863 112.587 35.953C112.587 36.3196 112.66 36.6386 112.807 36.91C112.961 37.1813 113.159 37.3903 113.401 37.537C113.65 37.6763 113.914 37.746 114.193 37.746C114.479 37.746 114.743 37.6726 114.985 37.526C115.234 37.3793 115.432 37.1703 115.579 36.899C115.733 36.6276 115.81 36.305 115.81 35.931Z" fill="#2B3038"/>
<path d="M124.222 32.906L120.449 41.882H118.81L120.13 38.846L117.688 32.906H119.415L120.988 37.163L122.583 32.906H124.222Z" fill="#2B3038"/>
<path d="M128.971 31.322V36.074C128.971 36.5946 129.107 36.9943 129.378 37.273C129.65 37.5443 130.031 37.68 130.522 37.68C131.021 37.68 131.406 37.5443 131.677 37.273C131.949 36.9943 132.084 36.5946 132.084 36.074V31.322H133.635V36.063C133.635 36.7156 133.492 37.2693 133.206 37.724C132.928 38.1713 132.55 38.5086 132.073 38.736C131.604 38.9633 131.08 39.077 130.5 39.077C129.928 39.077 129.408 38.9633 128.938 38.736C128.476 38.5086 128.11 38.1713 127.838 37.724C127.567 37.2693 127.431 36.7156 127.431 36.063V31.322H128.971Z" fill="#2B3038"/>
<path d="M137.345 39.099C136.847 39.099 136.399 39.011 136.003 38.835C135.607 38.6516 135.292 38.406 135.057 38.098C134.83 37.79 134.705 37.449 134.683 37.075H136.234C136.264 37.3096 136.377 37.504 136.575 37.658C136.781 37.812 137.034 37.889 137.334 37.889C137.628 37.889 137.855 37.8303 138.016 37.713C138.185 37.5956 138.269 37.4453 138.269 37.262C138.269 37.064 138.167 36.9173 137.961 36.822C137.763 36.7193 137.444 36.6093 137.004 36.492C136.55 36.382 136.176 36.2683 135.882 36.151C135.596 36.0336 135.347 35.854 135.134 35.612C134.929 35.37 134.826 35.0436 134.826 34.633C134.826 34.2956 134.922 33.9876 135.112 33.709C135.31 33.4303 135.589 33.2103 135.948 33.049C136.315 32.8876 136.744 32.807 137.235 32.807C137.961 32.807 138.541 32.9903 138.973 33.357C139.406 33.7163 139.644 34.204 139.688 34.82H138.214C138.192 34.578 138.09 34.3873 137.906 34.248C137.73 34.1013 137.492 34.028 137.191 34.028C136.913 34.028 136.696 34.0793 136.542 34.182C136.396 34.2846 136.322 34.4276 136.322 34.611C136.322 34.8163 136.425 34.974 136.63 35.084C136.836 35.1866 137.155 35.293 137.587 35.403C138.027 35.513 138.39 35.6266 138.676 35.744C138.962 35.8613 139.208 36.0446 139.413 36.294C139.626 36.536 139.736 36.8586 139.743 37.262C139.743 37.614 139.644 37.9293 139.446 38.208C139.256 38.4866 138.977 38.7066 138.61 38.868C138.251 39.022 137.829 39.099 137.345 39.099Z" fill="#2B3038"/>
<path d="M146.562 35.821C146.562 36.041 146.548 36.239 146.518 36.415H142.063C142.1 36.855 142.254 37.1996 142.525 37.449C142.797 37.6983 143.13 37.823 143.526 37.823C144.098 37.823 144.506 37.5773 144.747 37.086H146.409C146.232 37.6726 145.895 38.1566 145.396 38.538C144.898 38.912 144.285 39.099 143.559 39.099C142.973 39.099 142.445 38.9706 141.975 38.714C141.513 38.45 141.15 38.0796 140.886 37.603C140.63 37.1263 140.501 36.5763 140.501 35.953C140.501 35.3223 140.63 34.7686 140.886 34.292C141.143 33.8153 141.502 33.4486 141.964 33.192C142.426 32.9353 142.958 32.807 143.559 32.807C144.139 32.807 144.656 32.9316 145.11 33.181C145.572 33.4303 145.928 33.786 146.177 34.248C146.434 34.7026 146.562 35.227 146.562 35.821ZM144.967 35.381C144.96 34.985 144.817 34.6696 144.538 34.435C144.26 34.193 143.919 34.072 143.515 34.072C143.134 34.072 142.811 34.1893 142.547 34.424C142.291 34.6513 142.133 34.9703 142.074 35.381H144.967Z" fill="#2B3038"/>
<path d="M149.117 33.852C149.315 33.5293 149.571 33.2763 149.887 33.093C150.209 32.9096 150.576 32.818 150.987 32.818V34.435H150.58C150.096 34.435 149.729 34.5486 149.48 34.776C149.238 35.0033 149.117 35.3993 149.117 35.964V39H147.577V32.906H149.117V33.852Z" fill="#2B3038"/>
<path d="M159.771 33.632C159.595 33.3093 159.353 33.0636 159.045 32.895C158.737 32.7263 158.378 32.642 157.967 32.642C157.512 32.642 157.109 32.7446 156.757 32.95C156.405 33.1553 156.13 33.4486 155.932 33.83C155.734 34.2113 155.635 34.6513 155.635 35.15C155.635 35.6633 155.734 36.1106 155.932 36.492C156.137 36.8733 156.42 37.1666 156.779 37.372C157.138 37.5773 157.556 37.68 158.033 37.68C158.62 37.68 159.1 37.526 159.474 37.218C159.848 36.9026 160.094 36.4663 160.211 35.909H157.571V34.732H161.729V36.074C161.626 36.6093 161.406 37.1043 161.069 37.559C160.732 38.0136 160.295 38.3803 159.76 38.659C159.232 38.9303 158.638 39.066 157.978 39.066C157.237 39.066 156.566 38.901 155.965 38.571C155.371 38.2336 154.902 37.768 154.557 37.174C154.22 36.58 154.051 35.9053 154.051 35.15C154.051 34.3946 154.22 33.72 154.557 33.126C154.902 32.5246 155.371 32.059 155.965 31.729C156.566 31.3916 157.234 31.223 157.967 31.223C158.832 31.223 159.584 31.4356 160.222 31.861C160.86 32.279 161.3 32.8693 161.542 33.632H159.771Z" fill="#2B3038"/>
<path d="M164.298 33.852C164.496 33.5293 164.753 33.2763 165.068 33.093C165.391 32.9096 165.758 32.818 166.168 32.818V34.435H165.761C165.277 34.435 164.911 34.5486 164.661 34.776C164.419 35.0033 164.298 35.3993 164.298 35.964V39H162.758V32.906H164.298V33.852Z" fill="#2B3038"/>
<path d="M169.802 39.099C169.215 39.099 168.687 38.9706 168.218 38.714C167.748 38.45 167.378 38.0796 167.107 37.603C166.843 37.1263 166.711 36.5763 166.711 35.953C166.711 35.3296 166.846 34.7796 167.118 34.303C167.396 33.8263 167.774 33.4596 168.251 33.203C168.727 32.939 169.259 32.807 169.846 32.807C170.432 32.807 170.964 32.939 171.441 33.203C171.917 33.4596 172.291 33.8263 172.563 34.303C172.841 34.7796 172.981 35.3296 172.981 35.953C172.981 36.5763 172.838 37.1263 172.552 37.603C172.273 38.0796 171.892 38.45 171.408 38.714C170.931 38.9706 170.396 39.099 169.802 39.099ZM169.802 37.757C170.08 37.757 170.341 37.691 170.583 37.559C170.832 37.4196 171.03 37.2143 171.177 36.943C171.323 36.6716 171.397 36.3416 171.397 35.953C171.397 35.3736 171.243 34.93 170.935 34.622C170.634 34.3066 170.264 34.149 169.824 34.149C169.384 34.149 169.013 34.3066 168.713 34.622C168.419 34.93 168.273 35.3736 168.273 35.953C168.273 36.5323 168.416 36.9796 168.702 37.295C168.995 37.603 169.362 37.757 169.802 37.757Z" fill="#2B3038"/>
<path d="M179.753 32.906V39H178.202V38.23C178.004 38.494 177.744 38.703 177.421 38.857C177.106 39.0036 176.761 39.077 176.387 39.077C175.911 39.077 175.489 38.978 175.122 38.78C174.756 38.5746 174.466 38.2776 174.253 37.889C174.048 37.493 173.945 37.0236 173.945 36.481V32.906H175.485V36.261C175.485 36.745 175.606 37.119 175.848 37.383C176.09 37.6396 176.42 37.768 176.838 37.768C177.264 37.768 177.597 37.6396 177.839 37.383C178.081 37.119 178.202 36.745 178.202 36.261V32.906H179.753Z" fill="#2B3038"/>
<path d="M182.703 33.786C182.901 33.5073 183.172 33.2763 183.517 33.093C183.869 32.9023 184.268 32.807 184.716 32.807C185.236 32.807 185.706 32.9353 186.124 33.192C186.549 33.4486 186.883 33.8153 187.125 34.292C187.374 34.7613 187.499 35.3076 187.499 35.931C187.499 36.5543 187.374 37.108 187.125 37.592C186.883 38.0686 186.549 38.439 186.124 38.703C185.706 38.967 185.236 39.099 184.716 39.099C184.268 39.099 183.872 39.0073 183.528 38.824C183.19 38.6406 182.915 38.4096 182.703 38.131V41.904H181.163V32.906H182.703V33.786ZM185.926 35.931C185.926 35.5643 185.849 35.249 185.695 34.985C185.548 34.7136 185.35 34.5083 185.101 34.369C184.859 34.2296 184.595 34.16 184.309 34.16C184.03 34.16 183.766 34.2333 183.517 34.38C183.275 34.5193 183.077 34.7246 182.923 34.996C182.776 35.2673 182.703 35.5863 182.703 35.953C182.703 36.3196 182.776 36.6386 182.923 36.91C183.077 37.1813 183.275 37.3903 183.517 37.537C183.766 37.6763 184.03 37.746 184.309 37.746C184.595 37.746 184.859 37.6726 185.101 37.526C185.35 37.3793 185.548 37.1703 185.695 36.899C185.849 36.6276 185.926 36.305 185.926 35.931Z" fill="#2B3038"/>
</svg>
