<svg width="47" height="44" viewBox="0 0 47 44" fill="none" xmlns="http://www.w3.org/2000/svg">
<path d="M29.5446 9.10449L23.1641 12.6263L16.7443 9.10449L10.3019 13.8124L7.85938 22.5972L23.1641 38.1817L38.4295 22.5972L35.9869 13.8124L29.5446 9.10449Z" fill="#E73631"/>
<path d="M35.9883 13.8121L38.4309 22.597L45.9272 21.9997L41.5761 8.6416L35.9883 13.8121Z" fill="#D0332B"/>
<path d="M30.1877 0.386719L29.5469 9.10428L35.9892 13.8122L41.5771 8.64163L30.1877 0.386719Z" fill="#E73631"/>
<path d="M16.1484 0.386719L16.7471 9.10428L23.167 12.6261L29.5475 9.10428L30.1883 0.386719H16.1484Z" fill="#EF7C76"/>
<path d="M0.40625 22L7.86328 22.5972L14.0807 28.9258L4.75735 35.3581L0.40625 22Z" fill="#EF7C76"/>
<path d="M4.75391 8.64163L10.3024 13.8122L16.7447 9.10428L16.146 0.386719L4.75391 8.64163Z" fill="#E94845"/>
<path d="M0.40625 21.9997L7.86328 22.597L10.3059 13.8121L4.75735 8.6416L0.40625 21.9997Z" fill="#E73631"/>
<path d="M38.4333 22.5972L32.2383 28.923L41.5785 35.3581L45.9296 22L38.4333 22.5972Z" fill="#AC211D"/>
<path d="M41.5786 35.358L32.2384 28.9229L23.168 38.1816L30.2287 43.6129L41.5786 35.358Z" fill="#D0332B"/>
<path d="M16.1094 43.6129L23.1673 38.1816L30.228 43.6129H16.1094Z" fill="#AC211D"/>
<path d="M4.75391 35.3581L14.0773 28.9258L23.1646 38.1817L16.1067 43.613L4.75391 35.3581Z" fill="#E94845"/>
<path d="M41.9089 8.40352L30.3144 0H16.0215L4.42699 8.40352L0 22L4.42699 35.5965L15.7432 43.8262L16.0215 44H30.3537L41.9089 35.5965L46.3359 22L41.9089 8.40352ZM32.9565 28.8529L38.6455 23.0459L44.7703 22.558L40.9307 34.3459L32.9565 28.8529ZM5.40796 34.3459L1.56842 22.558L7.65378 23.0459L13.3625 28.8585L5.40796 34.3459ZM9.78155 13.9582L7.51886 22.1037L1.50939 21.6243L5.35174 9.83074L9.78436 13.961L9.78155 13.9582ZM7.86459 22.5972L23.1693 38.1817L14.0821 28.9286L7.86459 22.5972ZM29.651 1.31507L29.1001 8.82131L23.1665 12.0964L17.1964 8.82131L16.6792 1.31507H29.6538H29.651ZM22.7168 13.4395L23.1665 13.6862L23.6163 13.4395L29.4739 10.2065L35.177 14.3732L37.3891 22.3337L23.1637 36.8555L8.90177 22.3309L11.1139 14.3732L16.817 10.2065L22.7168 13.4423V13.4395ZM38.7777 22.1037L36.515 13.961L40.9841 9.82513L44.8265 21.6215L38.7777 22.1037ZM40.4979 9.00918L35.9556 13.2123L30.0305 8.883L30.5505 1.79735L40.4979 9.00637V9.00918ZM16.266 8.883L10.3409 13.2123L5.83239 9.01198L15.777 1.80296L16.2632 8.883H16.266ZM16.4122 42.6877L5.96731 35.0918L14.023 29.5343L22.4695 38.1341L16.5527 42.6877H16.4122ZM18.079 42.6877L23.1693 38.7706L28.2597 42.6877H18.079ZM23.8692 38.1341L32.2988 29.5287L40.3714 35.0918L29.9265 42.6877H29.7859L23.8692 38.1341Z" fill="#2B3038"/>
<path d="M17.6872 14.6535L21.7628 15.4302L17.4567 13.0664L13.1309 16.2265L11.4922 22.1204L17.4258 28.7182L21.7628 32.5793L17.7518 28.3341L13.5918 21.8513L14.7639 16.6639L17.6872 14.6535Z" fill="white"/>
</svg>
