<svg width="190" height="36" viewBox="0 0 190 36" fill="none" xmlns="http://www.w3.org/2000/svg">
<path d="M1.98695 35.5C0.8907 35.5 0 34.6423 0 33.5868V2.41399C0 1.64209 0.486459 0.942768 1.22643 0.645884C1.96639 0.349001 2.82283 0.513936 3.39151 1.06152L15.2447 12.475C16.0189 13.2205 16.0189 14.4345 15.2447 15.1866C14.4704 15.9321 13.2098 15.9321 12.4287 15.1866L3.98074 7.03877V33.5802C3.98074 34.6423 3.09004 35.5 1.98695 35.5Z" fill="#00D563"/>
<path d="M34.3605 35.5C33.8397 35.5 33.3327 35.3087 32.9559 34.9392L21.1027 23.5257C20.3285 22.7802 20.3285 21.5663 21.1027 20.8208C21.877 20.0753 23.1376 20.0753 23.9119 20.8208L32.3667 28.962V2.41399C32.3667 1.3584 33.2574 0.500741 34.3536 0.500741C35.4499 0.500741 36.3406 1.3584 36.3406 2.41399V33.5802C36.3406 34.3521 35.8541 35.0514 35.1141 35.3483C34.8743 35.4538 34.614 35.5 34.3605 35.5Z" fill="#00D563"/>
<path d="M71.4204 15.7671V26.765H67.4397V17.0273C67.4397 14.0848 65.8638 12.4421 63.2123 12.4421C60.6498 12.4421 58.5053 14.065 58.5053 17.0602V26.7584H54.5245V9.36766C54.5245 9.07078 54.7095 8.80688 54.9904 8.69472C55.2714 8.58257 55.6002 8.64194 55.8195 8.85306L58.471 11.4063C59.9304 9.34127 62.1914 8.81348 64.0482 8.81348C68.3646 8.80688 71.4204 11.6768 71.4204 15.7671Z" fill="black"/>
<path d="M93.0233 17.9971C93.0233 18.4919 92.9822 18.9801 92.948 19.4221H79.5189C80.0465 22.5625 82.3486 23.882 84.9248 23.882C86.7473 23.882 88.6795 23.1892 90.1799 22.0347L92.1532 24.7594C89.9333 26.5869 87.4325 27.2269 84.6782 27.2269C79.2312 27.2269 75.3806 23.5719 75.3806 18.0235C75.3806 12.541 79.0805 8.82008 84.4315 8.82008C89.5153 8.80688 93.0028 12.5344 93.0233 17.9971ZM79.5327 16.5193H88.9604C88.5219 13.7945 86.8775 12.2045 84.3493 12.2045C81.5264 12.2045 79.9506 13.9595 79.5327 16.5193Z" fill="black"/>
<path d="M109.371 12.7323H102.41V20.3457C102.41 22.701 103.698 23.6181 105.294 23.6181C106.528 23.6181 107.877 23.0903 108.953 22.4305L110.529 25.4785C109.07 26.4286 107.227 27.2137 104.952 27.2137C100.834 27.2137 98.4292 25.0761 98.4292 20.4183V12.7323H94.8047V9.2621H98.4292V3.96438H102.41V9.2621H109.371V12.7323Z" fill="black"/>
<path d="M126.61 11.3667V9.2687H130.59V25.5445C130.59 31.0402 126.911 34.4246 120.841 34.4246C118.127 34.4246 115.147 33.7121 113.235 32.3992L114.674 29.1665C116.517 30.2419 118.621 30.9412 120.841 30.9412C124.561 30.9412 126.61 28.9686 126.61 25.716V24.3108C125.246 25.9931 123.198 26.8706 120.56 26.8706C116.401 26.8706 112.139 23.5059 112.139 17.8453C112.139 12.1848 116.408 8.82008 120.56 8.82008C123.191 8.80688 125.239 9.70413 126.61 11.3667ZM116.216 17.8321C116.216 20.7746 118.223 23.2552 121.581 23.2552C124.787 23.2552 126.945 20.8999 126.945 17.8321C126.945 14.7643 124.78 12.4091 121.581 12.4091C118.223 12.4091 116.216 14.8699 116.216 17.8321Z" fill="black"/>
<path d="M170.226 9.30169L169.281 13.082C168.445 12.6598 167.232 12.4421 166.266 12.4421C163.745 12.4421 161.943 14.1574 161.943 17.1394V26.765H157.976V9.2621H161.902V11.2347C163.094 9.57218 164.958 8.80688 167.178 8.80688C168.383 8.80688 169.315 8.95202 170.226 9.30169Z" fill="black"/>
<path d="M135.804 20.26V9.2621H139.792V18.9999C139.792 21.9423 141.368 23.5851 144.026 23.5851C146.589 23.5851 148.733 21.9621 148.733 18.9669V9.2687H152.714V26.6661C152.714 26.963 152.529 27.2268 152.248 27.339C151.967 27.4512 151.638 27.3918 151.419 27.1807L148.767 24.6275C147.308 26.6925 145.047 27.2203 143.19 27.2203C138.853 27.2203 135.804 24.3504 135.804 20.26Z" fill="black"/>
<path d="M173.097 20.26V9.2621H177.078V18.9999C177.078 21.9423 178.654 23.5851 181.312 23.5851C183.875 23.5851 186.019 21.9621 186.019 18.9669V9.2687H190V26.6661C190 26.963 189.815 27.2268 189.534 27.339C189.253 27.4512 188.924 27.3918 188.705 27.1807L186.054 24.6275C184.594 26.6925 182.333 27.2203 180.476 27.2203C176.146 27.2203 173.097 24.3504 173.097 20.26Z" fill="black"/>
</svg>
