<svg width="144" height="34" viewBox="0 0 144 34" fill="none" xmlns="http://www.w3.org/2000/svg">
<path d="M1.91045 26.067H6.10932C6.77901 26.1424 7.40471 26.4399 7.88771 26.9126C8.44837 27.4973 8.76248 28.2775 8.76427 29.09C8.76228 29.1166 8.76228 29.1432 8.76427 29.1698V32.5811C8.76427 32.9568 8.91238 33.3171 9.17611 33.5831C9.43984 33.8491 9.79766 33.999 10.1711 34H15.2574C15.6314 34 15.9902 33.8505 16.2547 33.5844C16.5192 33.3183 16.6678 32.9574 16.6678 32.5811V29.6271C16.6698 29.6078 16.6698 29.5883 16.6678 29.569V26.7928C16.6678 26.4175 16.5196 26.0575 16.2558 25.7921C15.9919 25.5266 15.6341 25.3775 15.261 25.3775H12.4798C11.6721 25.3761 10.8964 25.06 10.3154 24.4957C10.0219 24.1868 9.793 23.8217 9.64242 23.4221C9.49184 23.0225 9.42261 22.5965 9.43884 22.1695C9.42824 22.0986 9.41379 22.0283 9.39555 21.959V20.3623C9.41378 20.2942 9.42824 20.2251 9.43884 20.1554C9.42115 19.7274 9.48934 19.3002 9.63932 18.8993C9.7893 18.4984 10.018 18.132 10.3118 17.822C10.8936 17.2589 11.6688 16.9431 12.4762 16.9401H18.8322C19.2056 16.9401 19.5638 16.7911 19.8282 16.5258C20.0926 16.2605 20.2417 15.9005 20.2426 15.5248V5.69751C20.2417 5.32182 20.0926 4.96184 19.8282 4.69652C19.5638 4.4312 19.2056 4.28221 18.8322 4.28221H10.1495C9.77602 4.28221 9.41781 4.4312 9.15341 4.69652C8.889 4.96184 8.73998 5.32182 8.73902 5.69751V13.5252C8.67666 14.2269 8.37604 14.8856 7.88771 15.3905C7.58042 15.6855 7.21748 15.9155 6.82033 16.067C6.42318 16.2185 5.99988 16.2883 5.57544 16.2724H1.91045C1.72492 16.2724 1.54122 16.3092 1.36986 16.3807C1.1985 16.4523 1.04286 16.5571 0.911837 16.6893C0.780818 16.8214 0.677 16.9783 0.606331 17.1508C0.535662 17.3234 0.49953 17.5083 0.500005 17.695V24.6517C0.50096 25.0274 0.649981 25.3874 0.914388 25.6527C1.17879 25.918 1.537 26.067 1.91045 26.067Z" fill="url(#paint0_linear_1447_997)"/>
<path d="M35.606 30.1968H31.2412V8.13982H35.606V11.591C36.8289 9.47529 38.9355 8.16523 41.9224 8.16523V12.7015H40.8113C37.5972 12.7015 35.606 14.0478 35.606 18.555V30.1968Z" fill="black"/>
<path d="M68.1797 11.7362H65.6907V8.15434H68.1797V7.00758C68.1797 2.11933 70.6687 0 76.1807 0V3.65802C73.5005 3.65802 72.5734 4.58341 72.5734 7.00758V8.15434H75.6071V11.7362H72.5734V30.1496H68.1797V11.7362Z" fill="black"/>
<path d="M79.9322 11.7362H77.4432V8.15434H79.9322V7.00758C79.9322 2.11933 82.4212 0 87.9332 0V3.65802C85.253 3.65802 84.3259 4.58341 84.3259 7.00758V8.15434H87.3596V11.7362H84.3331V30.1496H79.9322V11.7362Z" fill="black"/>
<path d="M91.1472 8.13619H95.512V30.1496H91.1472V8.13619Z" fill="black"/>
<path d="M115.265 17.8691C115.265 13.9789 113.159 11.9757 109.981 11.9757C106.803 11.9757 104.66 13.9789 104.66 17.8691V30.1496H100.295V8.13619H104.66V10.9378C106.078 9.20312 108.412 8.16523 110.937 8.16523C115.875 8.16523 119.594 11.2825 119.594 17.2159V30.1496H115.265V17.8691Z" fill="black"/>
<path d="M137.508 24.5574C136.621 25.6461 135.275 26.3719 133.255 26.3719C130.041 26.3719 127.552 24.2562 127.245 20.7506H143.348C143.454 20.0371 143.505 19.3163 143.5 18.5949C143.5 12.3531 139.25 8.15797 133.241 8.15797C127 8.15797 122.715 12.4329 122.715 19.0957C122.715 25.7586 127.206 30.0771 133.248 30.0771C137.869 30.0771 141.018 27.7037 142.479 24.5574H137.508ZM133.064 11.8559C136.31 11.8559 138.882 13.9353 138.958 17.2087H127.281C127.743 13.8627 130.117 11.8632 133.064 11.8632V11.8559Z" fill="black"/>
<path d="M58.3066 24.5574C57.4228 25.6461 56.0773 26.3719 54.0572 26.3719C50.8395 26.3719 48.3505 24.2562 48.0439 20.7506H64.1612C64.2701 20.0373 64.322 19.3165 64.3163 18.5949C64.3163 12.3531 60.067 8.15797 54.0572 8.15797C47.8166 8.15797 43.5276 12.4329 43.5276 19.0957C43.5276 25.7586 48.0078 30.0698 54.0572 30.0698C58.6782 30.0698 61.8237 27.6964 63.2883 24.5501L58.3066 24.5574ZM53.866 11.8559C57.1126 11.8559 59.6846 13.9353 59.7603 17.2087H48.0836C48.5453 13.8627 50.9153 11.8632 53.866 11.8632V11.8559Z" fill="black"/>
<defs>
<linearGradient id="paint0_linear_1447_997" x1="72.0131" y1="31.6043" x2="72.0131" y2="0.157773" gradientUnits="userSpaceOnUse">
<stop stop-color="#E11F94"/>
<stop offset="1" stop-color="#F2212E"/>
</linearGradient>
</defs>
</svg>
