<svg width="24" height="24" viewBox="0 0 24 24" fill="none" xmlns="http://www.w3.org/2000/svg">
<path d="M15.2053 6.26491L8.71429 8.42857L8.71428 8.42857C7.08082 8.97306 6.26409 9.24531 5.93878 9.55791C5.11982 10.3449 5.11982 11.6551 5.93878 12.4421C6.26409 12.7547 7.08082 13.0269 8.71428 13.5714L8.71429 13.5714C9.04339 13.6811 9.20793 13.736 9.35387 13.8132C9.70886 14.0009 9.99911 14.2911 10.1868 14.6461C10.264 14.7921 10.3189 14.9566 10.4286 15.2857C10.9731 16.9192 11.2453 17.7359 11.5579 18.0612C12.3449 18.8802 13.6551 18.8802 14.4421 18.0612C14.7547 17.7359 15.0269 16.9192 15.5714 15.2857L15.5714 15.2857L17.7351 8.79473C18.287 7.13894 18.563 6.31105 18.126 5.87403C17.689 5.43702 16.8611 5.71298 15.2053 6.26491Z" stroke="white" stroke-width="1.5"/>
</svg>
